<svg xmlns="http://www.w3.org/2000/svg" viewBox="0 0 527.69 148.57">
  <defs>
    <style>
      .cls-1 {
        fill: #de753c;
      }

      .cls-2 {
        fill: #230b00;
      }
    </style>
  </defs>
  <g id="Layer_2" data-name="Layer 2">
    <g id="Layer_1-2" data-name="Layer 1">
      <g>
        <path class="cls-1" d="M95.42,148.57H4.26A4.26,4.26,0,0,1,0,144.31V4.26A4.26,4.26,0,0,1,4.26,0H93.37a4.26,4.26,0,0,1,4.26,4.26V55.77a4.29,4.29,0,0,1-1,2.79L81.37,76.13,98,89.05a4.27,4.27,0,0,1,1.65,3.37v51.89A4.26,4.26,0,0,1,95.42,148.57ZM20.54,132.28h58.6A4.26,4.26,0,0,0,83.4,128V100.4A4.27,4.27,0,0,0,81.75,97L58.11,78.7A4.27,4.27,0,0,0,52.5,79L41.64,89.81a4.26,4.26,0,0,1-6,0l-5.46-5.51a4.25,4.25,0,0,1,0-6l21-20.83a4.26,4.26,0,0,1,5.61-.35l11.69,9.07L80.31,52.49a4.29,4.29,0,0,0,1-2.79V20.54a4.26,4.26,0,0,0-4.26-4.26H20.54a4.26,4.26,0,0,0-4.26,4.26V128A4.26,4.26,0,0,0,20.54,132.28Z"/>
        <g>
          <path class="cls-2" d="M133.58,102.47v-46h26c9.1,0,13.44,5.93,13.44,11.72s-3.52,9.58-7.86,10.54C170.1,79.52,174,84.21,174,90c0,6.68-4.48,12.47-13.5,12.47Zm11.85-28.19h11.51a3.89,3.89,0,0,0,4.07-4,3.84,3.84,0,0,0-4.07-3.93H145.43Zm0,18.34h11.92c2.83,0,4.55-1.73,4.55-4.21a4.25,4.25,0,0,0-4.55-4.34H145.43Z"/>
          <path class="cls-2" d="M212.21,102.47l-2.34-7H190.78l-2.35,7H175.55l17.29-46h14.89l17.37,46ZM200.29,66.84l-6.41,18.68h12.88Z"/>
          <path class="cls-2" d="M236.33,102.47V83.93L218.89,56.5h13.37l10,17,9.86-17h13.44L248.18,83.93v18.54Z"/>
          <path class="cls-2" d="M317.5,102.47V84H298.42v18.47H286.56v-46h11.86V73.66H317.5V56.5h11.86v46Z"/>
          <path class="cls-2" d="M359.89,55.75c14.05,0,24.53,9.78,24.53,23.77s-10.48,23.78-24.53,23.78-24.61-9.79-24.61-23.78S345.83,55.75,359.89,55.75Zm0,10.47c-7.65,0-12.55,5.79-12.55,13.3s4.9,13.3,12.55,13.3,12.47-5.85,12.47-13.3S367.47,66.22,359.89,66.22Z"/>
          <path class="cls-2" d="M430.73,102.47v-31l-11.65,31h-5.24l-11.57-31v31H390.41v-46h16.47l9.58,26.05,9.65-26h16.47v46Z"/>
          <path class="cls-2" d="M450.85,102.47v-46h33.7v10H462.7v7.65h21.36V84.21H462.7v8.27h21.85v10Z"/>
          <path class="cls-2" d="M494.4,87.1a20.77,20.77,0,0,0,14.68,6.07c4.06,0,6.55-1.73,6.55-3.93,0-2.62-3-3.65-7.86-4.69-7.58-1.51-18.19-3.44-18.19-14.33,0-7.72,6.54-14.4,18.33-14.4,7.37,0,13.78,2.2,18.67,6.4L520.1,70.7a21.33,21.33,0,0,0-13-4.75c-3.93,0-5.45,1.58-5.45,3.58,0,2.41,2.83,3.24,7.93,4.2,7.58,1.59,18.06,3.79,18.06,14.2,0,9.23-6.83,15.37-19.16,15.37-9.31,0-15.78-2.9-20.4-7.31Z"/>
        </g>
        <g>
          <path class="cls-1" d="M402.43,132.88a3.74,3.74,0,0,0,1.48-1.47,4.4,4.4,0,0,0,.53-2.22,4.48,4.48,0,0,0-.52-2.21,3.74,3.74,0,0,0-1.48-1.47,4.57,4.57,0,0,0-2.23-.53h-5.79v14.6h2.05v-6.17h3l3.12,6.17h2.43l-3.37-6.39A3.73,3.73,0,0,0,402.43,132.88Zm-6-1.42v-4.53h3.82a1.77,1.77,0,0,1,1.43.62,2.74,2.74,0,0,1,0,3.29,1.8,1.8,0,0,1-1.43.62Z"/>
          <polygon class="cls-1" points="409.2 124.99 408.21 124.99 408.21 139.58 409.2 139.58 410.25 139.58 417.58 139.58 417.58 137.63 410.25 137.63 410.25 133.31 416.47 133.31 416.47 131.36 410.25 131.36 410.25 126.94 417.58 126.94 417.58 124.99 410.25 124.99 409.2 124.99"/>
          <path class="cls-1" d="M424.85,125l-5.38,14.59h2.21l1.1-3.2h5.89l1.1,3.2H432L426.6,125Zm-1.4,9.44,2.27-6.62,2.28,6.62Z"/>
          <polygon class="cls-1" points="436.62 124.99 434.57 124.99 434.57 139.58 435.6 139.58 436.62 139.58 443.94 139.58 443.94 137.63 436.62 137.63 436.62 124.99"/>
          <polygon class="cls-1" points="453.64 124.99 452.65 124.99 452.65 139.58 453.64 139.58 454.7 139.58 462.02 139.58 462.02 137.63 454.7 137.63 454.7 133.31 460.92 133.31 460.92 131.36 454.7 131.36 454.7 126.94 462.02 126.94 462.02 124.99 454.7 124.99 453.64 124.99"/>
          <path class="cls-1" d="M473.61,132.38a5.3,5.3,0,0,0-1.45-.65c-.54-.15-1.08-.28-1.61-.39s-1.15-.25-1.67-.38a3,3,0,0,1-1.26-.64,1.61,1.61,0,0,1-.48-1.26h0a2,2,0,0,1,.83-1.69,4,4,0,0,1,2.32-.59,4.86,4.86,0,0,1,1.66.3,6.73,6.73,0,0,1,1.66.92l1.16-1.63a8.15,8.15,0,0,0-2.18-1.14,7.25,7.25,0,0,0-2.3-.38,5.8,5.8,0,0,0-3.82,1.12,3.84,3.84,0,0,0-1.36,3.15h0a4.12,4.12,0,0,0,.43,2,3,3,0,0,0,1.13,1.17,5.49,5.49,0,0,0,1.54.6l1.66.33a12.61,12.61,0,0,1,1.57.35,2.85,2.85,0,0,1,1.16.66,1.76,1.76,0,0,1,.44,1.28h0a1.89,1.89,0,0,1-.87,1.65,4.35,4.35,0,0,1-2.46.59,6.39,6.39,0,0,1-2.18-.36,5.83,5.83,0,0,1-1.84-1.08l-1.27,1.56a7,7,0,0,0,1.53,1,7.6,7.6,0,0,0,1.76.6,9.75,9.75,0,0,0,2,.2,6.29,6.29,0,0,0,4-1.1,3.74,3.74,0,0,0,1.4-3.12v0a4.15,4.15,0,0,0-.39-1.94A3.09,3.09,0,0,0,473.61,132.38Z"/>
          <polygon class="cls-1" points="476.36 126.94 480.48 126.94 480.48 139.58 482.53 139.58 482.53 126.94 486.65 126.94 486.65 124.99 476.36 124.99 476.36 126.94"/>
          <path class="cls-1" d="M492.62,125l-5.38,14.59h2.21l1.1-3.2h5.89l1.1,3.2h2.21L494.37,125Zm-1.4,9.44,2.27-6.62,2.28,6.62Z"/>
          <polygon class="cls-1" points="500.34 126.94 504.46 126.94 504.46 139.58 506.51 139.58 506.51 126.94 510.63 126.94 510.63 124.99 500.34 124.99 500.34 126.94"/>
          <polygon class="cls-1" points="522 126.94 522 124.99 514.67 124.99 513.62 124.99 512.63 124.99 512.63 139.58 513.62 139.58 514.67 139.58 522 139.58 522 137.63 514.67 137.63 514.67 133.31 520.89 133.31 520.89 131.36 514.67 131.36 514.67 126.94 522 126.94"/>
        </g>
      </g>
    </g>
  </g>
</svg>
